<svg xmlns="http://www.w3.org/2000/svg" viewBox="0 0 1920 1080"><g transform="
          rotate(12 960 540) 
          translate(-333.85764903342965 -187.79492758130414)
          scale(1.3477683844098225)
        "><rect width="1920" height="1080" fill="rgb(184, 171, 255)"></rect><g transform="translate(0, 0)"><path fill="rgb(161, 147, 239)" fill-opacity="1" d="M0,151.261L53.333,150.032C106.667,148.803,213.333,146.345,320,145.963C426.667,145.582,533.333,147.279,640,147.469C746.667,147.66,853.333,146.345,960,129.936C1066.667,113.526,1173.333,82.021,1280,79.361C1386.667,76.7,1493.333,102.883,1600,94.858C1706.667,86.834,1813.333,44.601,1866.667,23.485L1920,2.368L1920,1080L1866.667,1080C1813.333,1080,1706.667,1080,1600,1080C1493.333,1080,1386.667,1080,1280,1080C1173.333,1080,1066.667,1080,960,1080C853.333,1080,746.667,1080,640,1080C533.333,1080,426.667,1080,320,1080C213.333,1080,106.667,1080,53.333,1080L0,1080Z"></path></g><g transform="translate(0, 154.28571428571428)"><path fill="rgb(139, 122, 223)" fill-opacity="1" d="M0,114.696L53.333,105.301C106.667,95.906,213.333,77.116,320,59.724C426.667,42.332,533.333,26.338,640,34.594C746.667,42.85,853.333,75.355,960,81.216C1066.667,87.078,1173.333,66.294,1280,55.892C1386.667,45.489,1493.333,45.467,1600,60.546C1706.667,75.625,1813.333,105.805,1866.667,120.894L1920,135.984L1920,925.714L1866.667,925.714C1813.333,925.714,1706.667,925.714,1600,925.714C1493.333,925.714,1386.667,925.714,1280,925.714C1173.333,925.714,1066.667,925.714,960,925.714C853.333,925.714,746.667,925.714,640,925.714C533.333,925.714,426.667,925.714,320,925.714C213.333,925.714,106.667,925.714,53.333,925.714L0,925.714Z"></path></g><g transform="translate(0, 308.57142857142856)"><path fill="rgb(116, 98, 207)" fill-opacity="1" d="M0,142.697L53.333,123.122C106.667,103.548,213.333,64.398,320,48.267C426.667,32.136,533.333,39.022,640,54.117C746.667,69.211,853.333,92.514,960,108.999C1066.667,125.483,1173.333,135.15,1280,128.792C1386.667,122.434,1493.333,100.051,1600,77.277C1706.667,54.503,1813.333,31.338,1866.667,19.756L1920,8.174L1920,771.429L1866.667,771.429C1813.333,771.429,1706.667,771.429,1600,771.429C1493.333,771.429,1386.667,771.429,1280,771.429C1173.333,771.429,1066.667,771.429,960,771.429C853.333,771.429,746.667,771.429,640,771.429C533.333,771.429,426.667,771.429,320,771.429C213.333,771.429,106.667,771.429,53.333,771.429L0,771.429Z"></path></g><g transform="translate(0, 462.85714285714283)"><path fill="rgb(94, 73, 191)" fill-opacity="1" d="M0,1.147L53.333,16.434C106.667,31.722,213.333,62.296,320,71.907C426.667,81.517,533.333,70.163,640,58.362C746.667,46.561,853.333,34.312,960,30.966C1066.667,27.62,1173.333,33.177,1280,37.118C1386.667,41.059,1493.333,43.385,1600,57.024C1706.667,70.663,1813.333,95.615,1866.667,108.091L1920,120.567L1920,617.143L1866.667,617.143C1813.333,617.143,1706.667,617.143,1600,617.143C1493.333,617.143,1386.667,617.143,1280,617.143C1173.333,617.143,1066.667,617.143,960,617.143C853.333,617.143,746.667,617.143,640,617.143C533.333,617.143,426.667,617.143,320,617.143C213.333,617.143,106.667,617.143,53.333,617.143L0,617.143Z"></path></g><g transform="translate(0, 617.1428571428571)"><path fill="rgb(71, 49, 175)" fill-opacity="1" d="M0,147.665L53.333,148.567C106.667,149.469,213.333,151.272,320,140.839C426.667,130.405,533.333,107.735,640,89.698C746.667,71.661,853.333,58.257,960,46.559C1066.667,34.86,1173.333,24.867,1280,39.631C1386.667,54.396,1493.333,93.919,1600,116.643C1706.667,139.367,1813.333,145.291,1866.667,148.253L1920,151.216L1920,462.857L1866.667,462.857C1813.333,462.857,1706.667,462.857,1600,462.857C1493.333,462.857,1386.667,462.857,1280,462.857C1173.333,462.857,1066.667,462.857,960,462.857C853.333,462.857,746.667,462.857,640,462.857C533.333,462.857,426.667,462.857,320,462.857C213.333,462.857,106.667,462.857,53.333,462.857L0,462.857Z"></path></g><g transform="translate(0, 771.4285714285714)"><path fill="rgb(49, 24, 159)" fill-opacity="1" d="M0,152.476L53.333,143.474C106.667,134.471,213.333,116.465,320,105.222C426.667,93.978,533.333,89.496,640,80.339C746.667,71.182,853.333,57.35,960,68.276C1066.667,79.201,1173.333,114.885,1280,129.766C1386.667,144.647,1493.333,138.725,1600,137.041C1706.667,135.358,1813.333,137.913,1866.667,139.19L1920,140.468L1920,308.571L1866.667,308.571C1813.333,308.571,1706.667,308.571,1600,308.571C1493.333,308.571,1386.667,308.571,1280,308.571C1173.333,308.571,1066.667,308.571,960,308.571C853.333,308.571,746.667,308.571,640,308.571C533.333,308.571,426.667,308.571,320,308.571C213.333,308.571,106.667,308.571,53.333,308.571L0,308.571Z"></path></g><g transform="translate(0, 925.7142857142857)"><path fill="rgb(26, 0, 143)" fill-opacity="1" d="M0,115.018L53.333,98.097C106.667,81.175,213.333,47.332,320,51.385C426.667,55.438,533.333,97.386,640,106.916C746.667,116.447,853.333,93.56,960,74.098C1066.667,54.637,1173.333,38.601,1280,38.27C1386.667,37.94,1493.333,53.315,1600,74.74C1706.667,96.165,1813.333,123.64,1866.667,137.378L1920,151.116L1920,154.286L1866.667,154.286C1813.333,154.286,1706.667,154.286,1600,154.286C1493.333,154.286,1386.667,154.286,1280,154.286C1173.333,154.286,1066.667,154.286,960,154.286C853.333,154.286,746.667,154.286,640,154.286C533.333,154.286,426.667,154.286,320,154.286C213.333,154.286,106.667,154.286,53.333,154.286L0,154.286Z"></path></g></g></svg>